<svg height="512pt" viewBox="0 0 512 512" width="512pt" xmlns="http://www.w3.org/2000/svg"><path d="m45.839844 92.871094c-2.476563 0-4.957032-.914063-6.894532-2.757813-4-3.804687-4.15625-10.136719-.347656-14.136719l.277344-.292968c3.820312-3.988282 10.148438-4.128906 14.140625-.3125 3.988281 3.820312 4.128906 10.148437.308594 14.140625l-.238281.253906c-1.964844 2.0625-4.605469 3.105469-7.246094 3.105469zm0 0"/><path d="m311.421875 512c-46.433594 0-89.660156-21.628906-117.515625-58.328125-19.847656 12.019531-42.433594 18.328125-65.90625 18.328125-70.328125 0-127.542969-57.214844-127.542969-127.542969 0-31.007812 10.984375-60.3125 31.113281-83.488281-20.421874-24.945312-31.570312-56.03125-31.570312-88.511719 0-21.160156 4.609375-41.496093 13.699219-60.441406 2.386719-4.976563 8.359375-7.082031 13.339843-4.6875 4.980469 2.390625 7.078126 8.363281 4.691407 13.34375-7.785157 16.21875-11.730469 33.640625-11.730469 51.785156 0 30.523438 11.488281 59.609375 32.34375 81.894531 3.691406 3.941407 3.582031 10.101563-.242188 13.917969-20.40625 20.328125-31.648437 47.386719-31.648437 76.1875.003906 59.300781 48.246094 107.542969 107.546875 107.542969 22.644531 0 44.304688-6.957031 62.644531-20.121094 2.210938-1.589844 4.972657-2.207031 7.648438-1.710937 2.675781.492187 5.035156 2.058593 6.535156 4.332031 23.710937 36.003906 63.558594 57.5 106.597656 57.5 60.910157 0 113.554688-43.324219 125.179688-103.019531.71875-3.699219 3.460937-6.683594 7.089843-7.707031 28.441407-8.050782 48.304688-34.324219 48.304688-63.902344 0-22.613282-11.363281-43.46875-30.394531-55.789063-2.414063-1.5625-4.039063-4.085937-4.457031-6.933593-.421876-2.84375.402343-5.730469 2.261718-7.925782 21.015625-24.816406 32.589844-56.410156 32.589844-88.964844 0-75.960937-61.796875-137.757812-137.757812-137.757812-47.335938 0-90.804688 23.871094-116.273438 63.859375-1.605469 2.523437-4.257812 4.195313-7.230469 4.554687-2.96875.359376-5.941406-.628906-8.105469-2.691406-22.398437-21.375-51.785156-33.144531-82.753906-33.144531-19.882812 0-39.570312 4.960937-56.9375 14.355469-4.859375 2.628906-10.925781.820312-13.554687-4.039063-2.625-4.859375-.820313-10.925781 4.039062-13.550781 20.28125-10.96875 43.257813-16.765625 66.453125-16.765625 32.226563 0 62.992188 10.925781 87.804688 30.980469 29.734375-40.003906 76.234375-63.558594 126.558594-63.558594 86.988281 0 157.757812 70.769531 157.757812 157.757812 0 33.71875-10.847656 66.546876-30.730469 93.542969 19.414063 16.328125 30.730469 40.320313 30.730469 66.070313 0 36.429687-23.160156 69.007812-57.023438 81.265625-15.65625 66.039062-75.09375 113.363281-143.554687 113.363281zm0 0"/><path d="m354.242188 74c-.023438 0-.050782 0-.074219 0-5.515625-.042969-10.027344-4.542969-9.996094-10.058594.03125-5.5 4.574219-9.941406 10.070313-9.941406h.039062c5.515625.019531 10.046875 4.503906 10.035156 10.019531-.007812 5.515625-4.558594 9.980469-10.074218 9.980469zm0 0"/><path d="m448 167.757812c-5.523438 0-10-4.480468-10-10 0-31.898437-18.558594-61.5-47.277344-75.421874-4.96875-2.40625-7.046875-8.390626-4.636718-13.359376 2.40625-4.96875 8.390624-7.042968 13.359374-4.636718 17.285157 8.378906 31.898438 21.375 42.265626 37.585937 10.65625 16.660157 16.289062 35.96875 16.289062 55.832031 0 5.519532-4.476562 10-10 10zm0 0"/><path d="m128 418c-40.554688 0-73.542969-32.992188-73.542969-73.542969 0-5.523437 4.476563-10 10-10 5.523438 0 10 4.476563 10 10 0 29.523438 24.019531 53.542969 53.542969 53.542969 5.523438 0 10 4.476562 10 10s-4.476562 10-10 10zm0 0"/><path d="m300.328125 305.109375c-38.597656 0-70-31.402344-70-70s31.402344-70 70-70c38.601563 0 70 31.402344 70 70s-31.398437 70-70 70zm0-120c-27.566406 0-50 22.429687-50 50s22.433594 50 50 50c27.570313 0 50-22.429687 50-50s-22.429687-50-50-50zm0 0"/><path d="m158.316406 305.078125c-17.921875 0-35.847656-6.824219-49.496094-20.46875-27.292968-27.292969-27.292968-71.703125 0-98.996094 27.292969-27.292969 71.703126-27.292969 98.996094 0 3.90625 3.90625 3.90625 10.238281 0 14.144531-3.90625 3.902344-10.238281 3.902344-14.144531 0-9.441406-9.445312-22-14.648437-35.355469-14.648437-13.351562 0-25.910156 5.203125-35.351562 14.648437-19.496094 19.492188-19.496094 51.214844 0 70.707032 9.441406 9.445312 22 14.644531 35.351562 14.644531 13.355469 0 25.914063-5.199219 35.355469-14.644531 3.90625-3.902344 10.238281-3.902344 14.144531 0 3.90625 3.90625 3.90625 10.238281 0 14.144531-13.648437 13.644531-31.574218 20.46875-49.5 20.46875zm0 0"/><path d="m413.683594 346.890625h-32.144532c-4.320312 0-8.152343-2.777344-9.5-6.882813-1.347656-4.105468.097657-8.613281 3.578126-11.175781 9.152343-6.757812 28.0625-24.644531 28.0625-36.777343 0-3.84375-.992188-6.070313-6.070313-6.070313-3.34375 0-6.070313 2.722656-6.070313 6.070313 0 5.523437-4.476562 10-10 10-5.519531 0-10-4.476563-10-10 0-14.375 11.695313-26.070313 26.070313-26.070313 15.59375 0 26.070313 10.476563 26.070313 26.070313 0 12.691406-8.035157 25.167968-16.574219 34.835937h6.574219c5.523437 0 10 4.476563 10 10s-4.476563 10-9.996094 10zm0 0"/></svg>