<svg id="Layer_1" enable-background="new 0 0 512 512" height="512" viewBox="0 0 512 512" width="512" xmlns="http://www.w3.org/2000/svg"><path d="m166.256 148.61c-15.835 0-28.718 12.883-28.718 28.718s12.883 28.718 28.718 28.718 28.718-12.883 28.718-28.718-12.883-28.718-28.718-28.718zm0 41.437c-7.013 0-12.718-5.706-12.718-12.718s5.705-12.718 12.718-12.718 12.718 5.706 12.718 12.718-5.706 12.718-12.718 12.718zm15.469-109.871-87.263 121.465c-2.571 3.573-7.552 4.384-11.125 1.813s-4.384-7.552-1.813-11.125l87.263-121.465c2.571-3.573 7.552-4.384 11.125-1.813 3.573 2.572 4.384 7.553 1.813 11.125zm-56.087 14.106c0-15.835-12.883-28.719-28.718-28.719s-28.718 12.883-28.718 28.719c0 15.835 12.882 28.718 28.718 28.718 15.835 0 28.718-12.883 28.718-28.718zm-41.436 0c0-7.013 5.706-12.719 12.718-12.719s12.718 5.706 12.718 12.719-5.705 12.718-12.718 12.718-12.718-5.706-12.718-12.718zm417.491 124.037-19.408-104.372c-2.412-12.961-6.735-27.638-20.523-38.216-12.977-9.955-27.285-10.874-39.881-10.09l-43.455-48.308c-5.917-6.578-13.721-10.055-22.568-10.055h-315.742c-16.738 0-30.355 13.617-30.355 30.355v196.344c0 16.738 13.618 30.355 30.355 30.355h114.965l-55.285 72.063c-10.187 13.28-7.671 32.373 5.607 42.562l155.783 119.511c5.499 4.218 11.994 6.258 18.441 6.258 9.124 0 18.15-4.086 24.12-11.867l192.186-250.513c5.386-7.021 7.378-15.329 5.76-24.027zm-461.577 30.013c-7.916 0-14.355-6.439-14.355-14.355v-196.344c0-7.916 6.44-14.355 14.355-14.355h315.742c4.304 0 7.795 1.555 10.673 4.755l35.23 39.165-88.063 6.897c-8.82.69-16.329 4.766-21.715 11.786l-124.627 162.451zm443.123-15.726-192.185 250.514c-4.818 6.282-13.847 7.472-20.128 2.652l-155.782-119.51c-6.28-4.818-7.469-13.849-2.652-20.129l192.186-250.513c2.62-3.415 5.979-5.238 10.269-5.574 0 0 105.835-8.289 105.835-8.289 10.892-.852 22.257-.224 31.241 6.668 7.656 5.874 11.866 14.115 14.532 28.447l19.408 104.371c.787 4.232-.104 7.948-2.724 11.363zm-52.537-116.389c-12.591-9.658-30.693-7.274-40.353 5.317s-7.275 30.694 5.316 40.354c12.436 9.541 30.828 7.1 40.354-5.317 9.659-12.591 7.274-30.694-5.317-40.354zm-7.377 30.615c-4.237 5.522-12.406 6.593-17.92 2.361-5.523-4.238-6.596-12.4-2.361-17.92 2.514-3.277 6.314-4.997 10.156-4.997 10.316.001 16.473 12.281 10.125 20.556zm-5.229 69.822-26.007 33.91c-2.675 3.503-7.684 4.175-11.188 1.5l-69.069-52.971c-3.503-2.675-4.175-7.684-1.5-11.188 2.675-3.503 7.684-4.175 11.187-1.5l62.75 48.124 21.139-27.563c2.675-3.503 7.684-4.175 11.188-1.5s4.175 7.685 1.5 11.188zm-152.392 150.448s-35.148-26.956-35.159-26.964c-12.463-9.558-31.565-7.041-41.146 5.452l-13.004 16.955c-2.675 3.503-2.003 8.513 1.5 11.188l69.069 52.971c3.503 2.675 8.513 2.003 11.188-1.5 0 0 12.989-16.936 13.004-16.955 9.497-12.384 6.866-31.7-5.452-41.147zm-7.235 31.459-8.136 10.608-56.402-43.257s8.156-10.635 8.157-10.635c4.382-5.714 12.983-6.891 18.771-2.452 0 0 35.156 26.962 35.159 26.964 5.714 4.383 6.892 12.981 2.451 18.772zm68.932-63.65-26.007 33.91c-2.675 3.503-7.684 4.175-11.188 1.5l-69.069-52.971c-3.503-2.675-4.175-7.684-1.5-11.188l26.007-33.91c2.675-3.503 7.684-4.175 11.188-1.5 3.503 2.675 4.175 7.684 1.5 11.188l-21.16 27.59 21.868 16.771 13.552-17.671c2.675-3.503 7.684-4.175 11.188-1.5 3.503 2.675 4.175 7.684 1.5 11.188l-13.573 17.698 21.868 16.771 21.139-27.563c2.675-3.503 7.684-4.175 11.188-1.5 3.503 2.674 4.174 7.683 1.499 11.187zm45.71-75.382-86.062-30.815-.007.02c-2.333-.83-5.018-.566-7.212.948-3.624 2.502-4.534 7.47-2.031 11.094l52.077 75.128c2.502 3.624 7.47 4.534 11.094 2.031 3.624-2.502 4.534-7.47 2.031-11.094l-12.464-17.982 16.6-21.645 20.599 7.376c4.159 1.484 8.734-.684 10.219-4.844 1.484-4.158-.684-8.733-4.844-10.217zm-52.124 15.553-15.887-22.919 26.254 9.401z"/></svg>