<?xml version="1.0" encoding="UTF-8"?><svg id="Layer_1" xmlns="http://www.w3.org/2000/svg" viewBox="0 0 600 600"><defs><style>.cls-1{fill:#7323ad;}</style></defs><circle class="cls-1" cx="531.2" cy="237.77" r="21.27" transform="translate(230.31 735.93) rotate(-82.98)"/><path class="cls-1" d="m160.21,289.28c-4.15-5.39-7.59-8.22-13.33-11.59-4.12-2.42-15.45-5.19-26.44-4.36-7.6.58-11.07,1.41-19.14,3.76v-31.68c0-4.29.31-13.52-3.25-21.36-2.97-6.54-10.38-11.16-19.65-12.2-1.15-.13-5.31-.34-6.5-.34h-10.99c-1.19,0-6.34.22-7.5.34-16.49,1.62-21.12,17.14-22.08,28.71-.07.83-.07,4.21,0,5.04,0,0,.52,101.57.52,103.37s1.13,12.34,1.52,15.9c1.29,11.84,14.66,21.69,24.16,22.59,6.47.61,38.11.98,38.11.98,1.05,0,15.81.08,22.68,0,4.7-.06,17.43-1.42,25.47-4.64,7.21-2.89,12.26-6.04,16.03-10.37,4.49-5.16,7.73-11.52,10.18-18.69,2.44-7.17,3.67-14.88,3.67-23.13s-1.22-16.03-3.67-23.18c-2.45-7.14-5.1-13.01-9.81-19.14Zm-45.01,55.62c-8,0-14.49-6.49-14.49-14.49s6.49-14.49,14.49-14.49,14.49,6.49,14.49,14.49-6.49,14.49-14.49,14.49Z"/><path class="cls-1" d="m308.4,274.69c-1.66-.4-3.4-.62-5.18-.62h-27.8c-1.79,0-6.37.07-8.03.47-7.8,1.87-12.31,6.82-12.76,14.8-.18,3.15-.38,4.82-.38,6.9s-.17,18.63-.17,18.63c0,3.88-.2,8.12-1.09,12.01-2.67,11.65-16.28,10.95-18.39-1.2-.6-3.45-.84-6.43-1.13-11.08,0,0-.18-20.86-.68-25.16-.99-8.53-5.11-12.51-13.29-14.74-1.86-.51-5.82-.79-7.85-.79s-6.24-.05-8.38.24c-11.39,1.5-16.86,7.65-18.02,18.19v23.51c0,10.35,1.48,20.1,4.44,29.23,2.96,9.14,7.13,17.13,12.51,23.97,5.38,6.84,11.89,11.24,19.54,15.2,7.64,3.96,23.15,3.94,32.51,3.94,6.49,0,46.21-.22,47.77-.22s3.07-.16,4.54-.47c8.7-1.81,14.53-7.73,16.22-16.48.26-1.37.41-2.77.41-4.22s1.21-68.79,1.21-70.57-.22-3.51-.61-5.17c-1.93-8.08-7.29-14.44-15.36-16.38Z"/><path class="cls-1" d="m568.55,293.36c-1.16-10.15-9.07-18.42-19.17-19.94-1.13-.17-2.29-.27-3.48-.27-1.03,0-27.63-.39-29.42-.39s-3.53.21-5.2.6c-8.87,2.07-15.74,9.31-17.27,18.37-.21,1.24-.33,2.52-.33,3.82s.12,68.34.12,69.36.07,2.03.21,3.02c1.37,10.37,9.71,18.54,20.16,19.65.8.08,27.58.17,34.19,0,.89-.02,1.77-.09,2.65-.26,8.86-1.8,15.15-9,16.47-17.96.16-1.1.3-2.76.4-4.19.06-.9.1-1.65.11-4.22,0,0,.71-64,.71-65,0-.87-.05-1.74-.15-2.58Z"/><path class="cls-1" d="m457.36,211.85c-1.15-.11-6.31-.34-7.5-.34h-10.99c-1.19,0-5.34.21-6.5.34-9.27,1.04-16.68,5.66-19.65,12.2-3.55,7.84-3.25,17.07-3.25,21.36v31.68c-8.07-2.35-11.53-3.19-19.14-3.76-10.99-.83-22.32,1.94-26.44,4.36-5.74,3.37-9.18,6.2-13.33,11.59-4.72,6.13-7.37,12-9.81,19.14-2.44,7.14-3.67,14.87-3.67,23.18s1.22,15.96,3.67,23.13c2.45,7.17,5.69,13.53,10.18,18.69,3.77,4.33,8.82,7.49,16.03,10.37,8.04,3.22,20.78,4.58,25.47,4.64,6.86.08,21.63,0,22.68,0,0,0,31.64-.38,38.11-.98,9.5-.89,22.87-10.74,24.16-22.59.39-3.56,1.52-14.1,1.52-15.9s.52-103.37.52-103.37c.07-.83.07-4.21,0-5.04-.96-11.57-5.59-27.09-22.08-28.71Zm-61.77,133.05c-8,0-14.49-6.49-14.49-14.49s6.49-14.49,14.49-14.49,14.49,6.49,14.49,14.49-6.49,14.49-14.49,14.49Z"/></svg>