<svg xmlns="http://www.w3.org/2000/svg" version="1.1" xmlns:xlink="http://www.w3.org/1999/xlink" xmlns:svgjs="http://svgjs.dev/svgjs" width="1000" height="333" viewBox="0 0 1000 333"><g transform="matrix(1,0,0,1,-0.6060606060606233,0.4598263487894485)"><svg viewBox="0 0 396 132" data-background-color="#ffffff" preserveAspectRatio="xMidYMid meet" height="333" width="1000" xmlns="http://www.w3.org/2000/svg" xmlns:xlink="http://www.w3.org/1999/xlink"><g id="tight-bounds" transform="matrix(1,0,0,1,0.2400000000000091,-0.18227350762825267)"><svg viewBox="0 0 395.52 132.36452763335802" height="132.36452763335802" width="395.52"><g><svg viewBox="0 0 730.3882183222909 244.43136" height="132.36452763335802" width="395.52"><g transform="matrix(1,0,0,1,334.8682183222909,45.598947827063455)"><svg viewBox="0 0 395.52000000000004 153.2334643458731" height="153.2334643458731" width="395.52000000000004"><g id="textblocktransform"><svg viewBox="0 0 395.52000000000004 153.2334643458731" height="153.2334643458731" width="395.52000000000004" id="textblock"><g><svg viewBox="0 0 395.52000000000004 153.2334643458731" height="153.2334643458731" width="395.52000000000004"><g transform="matrix(1,0,0,1,0,0)"><svg width="395.52000000000004" viewBox="4.199999809265137 -33.08000183105469 86.96000671386719 33.69000244140625" height="153.2334643458731" data-palette-color="#4755a0"><path d="M10.42-9.89L10.42 0.15Q8.74 0 6.13 0L6.13 0 4.2 0 4.2-32.57 5.18-32.52Q6.2-32.47 6.71-32.47L6.71-32.47 7.42-32.47Q9.57-32.47 10.42-32.67L10.42-32.67 10.42-18.87 20.31-32.57Q21.88-32.47 22.95-32.47L22.95-32.47 24.29-32.47Q26.81-32.47 27.88-32.67L27.88-32.67 18.46-20.36 27.73-1.95Q28.32-0.61 28.83 0L28.83 0 27.34 0Q22.19 0 20.92 0.2L20.92 0.2Q20.65-1.44 20.19-2.66L20.19-2.66 13.96-14.53 10.42-9.89ZM60.01-19.63L60.08-19.58Q59.62-18.75 59.62-15.6L59.62-15.6 59.62-8.03Q59.62-4.59 56.05-2.05L56.05-2.05Q52.37 0.61 47.02 0.61L47.02 0.61Q39.6 0.61 35.18-4.05L35.18-4.05Q30.91-8.5 30.91-15.38L30.91-15.38Q30.91-22.71 35.25-27.59L35.25-27.59Q40.11-33.08 48.63-33.08L48.63-33.08Q54.32-33.08 57.64-30.88L57.64-30.88 57.25-23.68 57.05-23.63Q56.2-25.12 53.68-26.07L53.68-26.07Q51.29-26.98 48.67-26.98 46.04-26.98 44.08-26.15 42.11-25.32 40.74-23.78L40.74-23.78Q37.86-20.63 37.86-15.45L37.86-15.45Q37.86-10.94 40.4-8.2L40.4-8.2Q42.94-5.49 46.95-5.49L46.95-5.49Q51.36-5.49 52.9-7.79L52.9-7.79Q53.39-8.52 53.39-9.45L53.39-9.45 53.39-13.5 50.24-13.5Q47.7-13.5 47.48-13.06L47.48-13.06 47.41-13.09 47.19-19.46Q47.87-19.26 52.73-19.26L52.73-19.26 55.61-19.26Q58.3-19.26 60.01-19.63L60.01-19.63ZM73.21 0L66.84 0Q66.99-0.83 66.99-1.81L66.99-1.81 66.99-32.47 71.87-32.47 84.81-12.11 84.81-30.81Q84.81-32.15 84.57-32.47L84.57-32.47 91.16-32.47Q91.04-31.49 91.04-30.32L91.04-30.32 91.04 0 85.96 0 73.21-19.56 73.21 0Z" opacity="1" transform="matrix(1,0,0,1,0,0)" fill="#4755a0" class="wordmark-text-0" data-fill-palette-color="primary" id="text-0"></path></svg></g></svg></g></svg></g></svg></g><g><svg viewBox="0 0 244.43136 244.43136" height="244.43136" width="244.43136"><g><svg viewBox="0 0 244.43136 244.43136" height="244.43136" width="244.43136"><g transform="matrix(1,0,0,1,64.60265593644993,64.66362581563706)"><svg viewBox="0 0 115.22604812710016 115.10410836872589" height="115.10410836872589" width="115.22604812710016"><g><svg xmlns="http://www.w3.org/2000/svg" xmlns:xlink="http://www.w3.org/1999/xlink" version="1.1" x="0" y="0" viewBox="3.3999996185302734 2.3999996185302734 94.50000762939453 94.4000015258789" style="enable-background:new 0 0 100 100;" xml:space="preserve" height="115.10410836872589" width="115.22604812710016" class="icon-s-0" data-fill-palette-color="accent" id="s-0"><path d="M63.2 27.5c-1.9 0-3.8 0.6-5.3 1.6L46.3 17.4c1-1.5 1.6-3.3 1.6-5.3 0-5.3-4.3-9.7-9.7-9.7s-9.7 4.3-9.7 9.7c0 1.9 0.6 3.8 1.6 5.3L18.4 29c-1.5-1-3.3-1.6-5.3-1.6-5.3 0-9.7 4.3-9.7 9.7s4.3 9.7 9.7 9.7 9.7-4.3 9.7-9.7c0-1.9-0.6-3.8-1.6-5.3l11.6-11.6c1.5 1 3.3 1.6 5.3 1.6 1.9 0 3.8-0.6 5.3-1.6L55 31.8c-1 1.5-1.6 3.3-1.6 5.3 0 5.3 4.3 9.7 9.7 9.7 5.3 0 9.7-4.3 9.7-9.7S68.5 27.5 63.2 27.5z" fill="#4755a0" data-fill-palette-color="accent"></path><path d="M88.2 52.5c-5.3 0-9.7 4.3-9.7 9.7 0 1.9 0.6 3.8 1.6 5.3L68.4 79c-1.5-1-3.3-1.6-5.3-1.6-1.9 0-3.8 0.6-5.3 1.6L46.3 67.4c1-1.5 1.6-3.3 1.6-5.3 0-5.3-4.3-9.7-9.7-9.7s-9.7 4.3-9.7 9.7c0 5.3 4.3 9.7 9.7 9.7 1.9 0 3.8-0.6 5.3-1.6l11.6 11.6c-1 1.5-1.6 3.3-1.6 5.3 0 5.3 4.3 9.7 9.7 9.7 5.3 0 9.7-4.3 9.7-9.7 0-1.9-0.6-3.8-1.6-5.3l11.6-11.6c1.5 1 3.3 1.6 5.3 1.6 5.3 0 9.7-4.3 9.7-9.7C97.8 56.8 93.5 52.5 88.2 52.5z" fill="#4755a0" data-fill-palette-color="accent"></path><path d="M38.2 77.5c-1.9 0-3.8 0.6-5.3 1.6L21.3 67.4c1-1.5 1.6-3.3 1.6-5.3 0-1.9-0.6-3.8-1.6-5.3l11.6-11.6c1.5 1 3.3 1.6 5.3 1.6 5.3 0 9.7-4.3 9.7-9.7s-4.3-9.7-9.7-9.7-9.7 4.3-9.7 9.7c0 1.9 0.6 3.8 1.6 5.3L18.4 54c-1.5-1-3.3-1.6-5.3-1.6-5.3 0-9.7 4.3-9.7 9.7 0 5.3 4.3 9.7 9.7 9.7 1.9 0 3.8-0.6 5.3-1.6L30 81.8c-1 1.5-1.6 3.3-1.6 5.3 0 5.3 4.3 9.7 9.7 9.7s9.7-4.3 9.7-9.7C47.8 81.8 43.5 77.5 38.2 77.5z" fill="#4755a0" data-fill-palette-color="accent"></path><path d="M88.2 27.5c-1.9 0-3.8 0.6-5.3 1.6L71.3 17.4c1-1.5 1.6-3.3 1.6-5.3 0-5.3-4.3-9.7-9.7-9.7-5.3 0-9.7 4.3-9.7 9.7s4.3 9.7 9.7 9.7c1.9 0 3.8-0.6 5.3-1.6l11.6 11.6c-1 1.5-1.6 3.3-1.6 5.3 0 1.9 0.6 3.8 1.6 5.3L68.4 54c-1.5-1-3.3-1.6-5.3-1.6-5.3 0-9.7 4.3-9.7 9.7 0 5.3 4.3 9.7 9.7 9.7 5.3 0 9.7-4.3 9.7-9.7 0-1.9-0.6-3.8-1.6-5.3l11.6-11.6c1.5 1 3.3 1.6 5.3 1.6 5.3 0 9.7-4.3 9.7-9.7S93.5 27.5 88.2 27.5z" fill="#4755a0" data-fill-palette-color="accent"></path></svg></g></svg></g><g><path d="M35.06 89.519l12.309 5.317c-0.717 1.327-1.537 3.059-2.46 5.195v0l-1.02 2.361-39.959-17.262 0.573-1.175c0.403-0.817 0.695-1.434 0.875-1.851v0l0.376-0.872c0.761-1.761 1.213-3.023 1.356-3.787v0l16.921 7.309-11.56-19.395c0.63-1.243 1.135-2.303 1.514-3.18v0l0.71-1.643c0.889-2.058 1.445-3.562 1.669-4.514v0l10.101 18.086 27.502-1.627c1.308-0.002 2.3-0.105 2.976-0.308v0l-0.788 1.824c-1.819 4.212-2.875 6.872-3.168 7.982v0c-1.432-0.36-2.729-0.565-3.892-0.615v0l-17.849 1.348z" fill="#4755a0" data-fill-palette-color="accent"></path><path d="M138.101 17.168l0.102 0.053c-0.367 0.766-0.473 2.548-0.319 5.346v0l0.559 10.1c0.169 3.067-1.27 5.817-4.318 8.25v0c-3.147 2.544-7.1 3.948-11.859 4.211v0c-6.602 0.365-11.985-1.417-16.151-5.347v0c-4.016-3.739-6.193-8.673-6.532-14.801v0c-0.36-6.516 1.272-12.053 4.896-16.611v0c4.055-5.123 9.873-7.894 17.455-8.312v0c5.062-0.28 9.121 0.476 12.178 2.268v0l0.017 9.635-0.262 0.084c-0.83-1.288-2.388-2.291-4.673-3.01v0c-2.177-0.685-4.43-0.963-6.76-0.835-2.337 0.129-4.36 0.611-6.07 1.445-1.704 0.834-3.126 1.969-4.269 3.405v0c-2.412 2.946-3.491 6.719-3.237 11.32v0c0.222 4.022 1.532 7.184 3.931 9.488v0c2.391 2.291 5.367 3.338 8.928 3.141v0c3.93-0.217 6.522-1.387 7.779-3.51v0c0.398-0.676 0.575-1.425 0.529-2.247v0l-0.299-5.411-4.206 0.233c-2.258 0.125-3.471 0.39-3.64 0.795v0l-0.101-0.034-0.766-8.485c0.615 0.138 3.085 0.087 7.41-0.151v0l3.84-0.213c2.389-0.132 4.335-0.401 5.838-0.807z" fill="#4755a0" data-fill-palette-color="accent"></path><path d="M190.928 82.519l-4.274-7.374c0.705-0.256 1.434-0.602 2.187-1.039v0l35.462-20.551 3.272 5.647-14.873 28.607 21.629-12.534c1.032-0.598 1.617-1.063 1.752-1.392v0l4.418 7.622c-0.806 0.345-1.659 0.779-2.561 1.301v0l-35.068 20.323-3.406-5.877 14.074-27.837z" fill="#4755a0" data-fill-palette-color="accent"></path><path d="M28.048 167.367l-12.401 5.377c-0.48-1.437-1.186-3.233-2.12-5.385v0l-1.035-2.386 40.261-17.459 0.46 1.234c0.325 0.865 0.579 1.509 0.763 1.932v0l0.377 0.871c0.768 1.772 1.386 2.973 1.854 3.605v0l-17.055 7.395 22.24 4.885c0.474 1.325 0.902 2.429 1.286 3.312v0l0.72 1.66c0.9 2.074 1.622 3.518 2.168 4.33v0l-20.265-5.051-17.78 21.333c-0.897 0.964-1.505 1.766-1.823 2.407v0l-0.798-1.841c-1.841-4.246-3.07-6.856-3.687-7.832v0c1.252-0.809 2.3-1.622 3.144-2.442v0l11.325-14.05z" fill="#4755a0" data-fill-palette-color="accent"></path><path d="M139.262 218.132l0.095 0.074c-0.456 0.721-0.763 2.493-0.92 5.317v0l-0.567 10.189c-0.172 3.087-1.921 5.68-5.246 7.779v0c-3.437 2.199-7.554 3.164-12.353 2.897v0c-6.654-0.371-11.846-2.756-15.576-7.156v0c-3.609-4.202-5.241-9.39-4.897-15.564v0c0.366-6.569 2.619-11.933 6.759-16.093v0c4.632-4.687 10.768-6.818 18.41-6.393v0c5.101 0.284 9.087 1.496 11.959 3.637v0l-1.072 9.656-0.261 0.055c-0.696-1.379-2.145-2.559-4.348-3.54v0c-2.101-0.929-4.329-1.459-6.686-1.591-2.356-0.131-4.434 0.126-6.233 0.772-1.805 0.646-3.362 1.625-4.669 2.939v0c-2.737 2.68-4.235 6.34-4.494 10.981v0c-0.226 4.054 0.732 7.369 2.873 9.944v0c2.142 2.562 5.006 3.943 8.593 4.143v0c3.969 0.221 6.699-0.66 8.189-2.644v0c0.478-0.634 0.74-1.365 0.786-2.194v0l0.304-5.46-4.236-0.236c-2.277-0.127-3.526 0.002-3.745 0.386v0l-0.097-0.035 0.181-8.586c0.603 0.205 3.083 0.429 7.44 0.671v0l3.87 0.216c2.409 0.134 4.389 0.079 5.941-0.164z" fill="#4755a0" data-fill-palette-color="accent"></path><path d="M220.386 188.612l-4.321 7.417c-0.577-0.489-1.245-0.954-2.002-1.396v0l-35.696-20.797 3.31-5.682 32.481-1.263-21.769-12.683c-1.042-0.607-1.742-0.885-2.101-0.835v0l4.47-7.672c0.704 0.532 1.51 1.063 2.416 1.59v0l35.303 20.568-3.445 5.913-31.416 1.575z" fill="#4755a0" data-fill-palette-color="accent"></path><path d="M6.287 126.866c0-9.327 7.561-16.888 16.888-16.888 9.327 0 16.888 7.561 16.888 16.888 0 9.327-7.561 16.888-16.888 16.888-9.327 0-16.888-7.561-16.888-16.888z" fill="#4755a0" data-fill-palette-color="accent"></path><path d="M204.189 126.866c0-9.327 7.561-16.888 16.889-16.888 9.327 0 16.888 7.561 16.888 16.888 0 9.327-7.561 16.888-16.888 16.888-9.327 0-16.888-7.561-16.889-16.888z" fill="#4755a0" data-fill-palette-color="accent"></path></g></svg></g></svg></g></svg></g><defs></defs></svg><rect width="395.52" height="132.36452763335802" fill="none" stroke="none" visibility="hidden"></rect></g></svg></g></svg>